<?xml version="1.0" encoding="UTF-8"?><svg id="New_Layer" xmlns="http://www.w3.org/2000/svg" viewBox="0 0 277 396.82"><defs><style>.cls-1{fill-rule:evenodd;}</style></defs><path class="cls-1" d="M139,2.05c0,3.4-1.8,5.8-6.7,8.8-2.9,1.8-4.1,3.1-3.3,3.6,.6,.4,3.3-.7,6.1-2.4l5-3.1,4.1,3c4.1,3,6.8,3.8,6.8,2,0-.5-1-1.5-2.2-2.1-4.1-2.1-6.8-5.2-7.4-8.6-.7-3.6-2.4-4.5-2.4-1.2Z"/><path class="cls-1" d="M112.6,3.85c.5,2.5,.2,3-2.5,3.9-4.1,1.5-3.9,2.6,.3,1.9,3.4-.5,3.5-.4,4.1,3.4,.6,3.7,2,5.7,3.2,4.6,1-1.1-3-16.7-4.3-16.7-1,0-1.2,.9-.8,2.9Z"/><path class="cls-1" d="M99,9.35c0,3.3-.7,5.2-2.5,7.4-1.4,1.7-2.5,3.3-2.5,3.6,0,.9,3,.7,3-.2,0-.4,1.2-2,2.5-3.5l2.5-2.8,4,2.1c3,1.5,4,1.7,4,.7,0-.7-1.5-2.1-3.4-3-2.4-1.1-3.8-2.7-4.6-5.1-1.6-4.9-3-4.5-3,.8Z"/><path class="cls-1" d="M174.2,7.45c-1.3,2.7-1.4,2.8-8,4.5-2.3,.6-4,1.5-3.7,2.1,.7,1.1,6.8,.2,9.9-1.3,1.5-.8,2.6-.2,6,3.1,2.3,2.3,4.5,4.1,4.9,4.1,1.6,0,.5-2-2.8-5.3-2.5-2.5-3.5-4.4-3.5-6.6,0-3.8-1.3-4-2.8-.6Z"/><path class="cls-1" d="M198,14.95c0,.6,1.1,1.6,2.5,2.2s2.5,1.5,2.5,1.9c0,2.1-5.6,7-9.1,7.9-2.1,.6-3.9,1.5-3.9,2,0,1.4,2.9,1.2,6.5-.4l3-1.3,1.6,4.6c.9,2.5,2,4.4,2.5,4.1s.7-1,.5-1.5c-1.1-3.2-1.2-8.9-.1-11.5,1.2-2.9,1.3-2.9,4.1-1.5,3.3,1.8,3.9,1.8,3.9,.5,0-.8-11.9-8-13.3-8-.4,0-.7,.5-.7,1Z"/><path class="cls-1" d="M138.6,16.55c-.3,.9-.6,2.4-.6,3.5,0,1.7-.8,1.9-6,1.9-3.3,0-6,.4-6,1s5.2,1,13.5,1,13.5-.4,13.5-1-2.7-1-6-1q-6,0-6-2.9c0-3.4-1.5-4.9-2.4-2.5Z"/><path class="cls-1" d="M67.5,17.95c-.4,.6-.3,4.7,.1,9.2,.8,9.1,1.3,8.9-7.2,2.6-5-3.8-7.8-4.7-8.8-2.9-.6,.8,8.3,17.3,10.5,19.5,1.4,1.5,2.4-.3,1.3-2.2-4.4-7.2-8.5-15.4-7.3-14.7,.8,.5,4,2.8,7.3,5.2,3.2,2.4,6.2,4,6.8,3.7,.5-.3,.7-2.2,.4-4.3-.3-2-.8-6.1-1.1-9.1l-.6-5.5,5.1,8.7c4.7,8,7,10.6,7,7.8,0-.6-2.4-5.1-5.2-10-5-8.5-6.9-10.3-8.3-8Z"/><path class="cls-1" d="M159,18.85c0,.5,2.4,1.5,5.3,2.3,5.1,1.5,5.2,1.6,4.8,4.9-.6,6.2-.6,6.8,.4,7.1,.5,.2,1.4-1.7,2-4.2,1.2-4.9,1.9-5.2,9.8-3.6,2.2,.5,3.7,.4,3.7-.1,0-.6-5.5-2.4-12.2-4.2-13.6-3.4-13.8-3.5-13.8-2.2Z"/><path class="cls-1" d="M107.3,21.05c-6.4,1.9-7.8,8.6-2.3,10.9,2.1,.9,3.8,.9,7.1,0,5.3-1.4,7.9-3.6,7.9-6.5,0-4.8-5.2-6.6-12.7-4.4Zm8.1,1.5c2.1,.8,2,5.1-.1,6.2-6,3.2-12.2,1.7-10.9-2.6,1-3,7.2-5,11-3.6Z"/><path class="cls-1" d="M210.2,32.55c-3.4,6.4-6.2,12-6.2,12.6,0,2.4,2.7-.3,5.8-6,3-5.5,3.6-6.1,5.4-5.1,2.7,1.4,3.8,.1,1.4-1.7-2-1.4-2-1.5,.1-5.8,2-4,2.1-5.6,.3-5.6-.3,0-3.4,5.2-6.8,11.6Z"/><path class="cls-1" d="M38,37.65c-5.3,3.6-6.6,8.5-3.2,11.6,2.4,2.2,4.4,2.1,9.3-.3,5.4-2.8,8.1-1.9,7.7,2.3-.2,2.5-1.1,3.6-4,5.2-4.2,2.2-4.8,3.5-1.7,3.5s8.9-6.2,8.9-9.3c0-1.5-1-3.4-2.5-4.5-2.7-2.1-3.8-2-11.3,1-3,1.2-3.5,1.1-4.7-.6-1.8-2.4-.5-5.1,3.6-7.4,1.6-1,2.9-2,2.9-2.5,0-1.2-2.4-.8-5,1Z"/><path class="cls-1" d="M238.7,40.65c-.4,.3,.9,2.3,2.8,4.3,3.4,3.5,3.5,3.7,1.7,5.3-1.7,1.6-2,1.5-5.2-1.8-3.1-3.2-6-4.5-6-2.8,0,.5,1.6,2.1,3.5,3.6s3.5,3.2,3.5,3.7c0,1.3-5.2,1.3-8.6,0-3.3-1.3-6.8-.5-4.4,1,.8,.5,3.8,1.4,6.7,2,5.8,1.3,8.9,.2,13.3-4.4l2.4-2.7-4.5-4.5c-2.5-2.4-4.8-4.1-5.2-3.7Z"/><path class="cls-1" d="M125,52.65c-17.1,1.6-31.4,5.5-46.5,12.7C40.4,83.65,12.8,119.35,4.3,161.65c-2.4,12.1-2.4,37.4,.1,49.8,9.6,48.8,43.3,87.4,89.7,102.9,30.4,10.2,66.4,8.7,95.8-3.9,41.5-17.7,72.4-57.2,79.6-101.7,1.7-10.6,1.9-31,.5-41.3-6.8-47.3-39.6-88.9-83.7-105.9-19.7-7.6-41.6-10.8-61.3-8.9Zm39.3,6.3c41.7,9.1,76.8,38.6,93,78,6.8,16.4,9.8,32.4,9.8,51.5-.1,66.5-53,123.1-120.1,128.4-38.8,3.1-74.8-10.3-102.6-38.3C19.8,253.85,7.6,225.75,6.3,190.45c-1.1-29.9,7.8-57.9,26.1-82.3,21-27.8,53.3-46.8,87.1-51.2,11.4-1.4,33.6-.5,44.8,2Z"/><path class="cls-1" d="M120,100.35c-13.3,2.9-25,8.1-35.5,16-13.6,10.1-27.6,28.6-21.6,28.6,.6,0,2.6-2.4,4.5-5.3,1.9-2.8,6.3-8.1,9.8-11.6,10.3-10.5,20.7-16.7,35.8-21.6,7.6-2.5,10-2.8,23-2.9,17.2,0,22.7,1.2,37.5,8.4,12.3,6,21.2,13.3,30,24.4,6.1,7.9,8.5,9.6,8.5,6.1,0-.7-2.7-5-6-9.4-10.4-14.1-28.1-26.1-46-31.1-9.7-2.8-30.6-3.6-40-1.6Z"/><path class="cls-1" d="M121.3,119.55c-4.2,2.1-6.7,7.3-5.8,12.4,1.3,7.8,14.2,25.7,16.8,23.1,.8-.8,.8-1.6,.2-2.5-.6-.7-3.1-4.1-5.7-7.4-8.5-11.3-9.7-18.7-3.6-22.1,3.6-2.1,7.1-.3,9.8,4.9,1.7,3.3,2.4,3.9,3.5,3,3.1-2.6-3.3-11.5-9-12.5-1.8-.3-4.3,.1-6.2,1.1Z"/><path class="cls-1" d="M142.3,132.95c-3.2,1.3-5.9,5.8-4.4,7.3,.9,.9,1.7,.5,3.7-1.6,2.7-2.9,4.4-3.3,7.5-1.7,4.2,2.3,1.1,8.9-6.5,14.1-3.6,2.4-4.5,4.2-2.5,5.4,1.3,.9,9.4-5.4,12.5-9.7,1.3-1.7,2.4-4.4,2.4-5.9,0-5.7-7.2-10.2-12.7-7.9Z"/><path class="cls-1" d="M52.2,153.95c-6.3,3.9-8.9,12.3-6.2,19.6,1,2.5,.8,3-2,5.2-5.8,4.5-7.4,10.9-4.5,17.8,.8,1.9,2.8,4.2,4.5,5.2,2,1.1,2.8,2.2,2.4,3.2-.4,.8-.9,4.3-1.2,7.8l-.4,6.2,4.5,4.6c2.8,2.8,5.3,4.4,6.4,4.2,2.7-.5,4.7-5.6,4.8-12.3,0-5.1-.4-6.6-2.9-9.8l-2.9-3.8,2.2-1.5c2.9-2,5.1-6.6,5.1-10.5,0-3.4-3.2-9.3-5.7-10.8-1.4-.7-1.2-1.4,1.3-4.7,2.5-3.2,2.9-4.6,2.8-9.8-.1-5.7-2.4-12.6-4.2-12.6-.4,0-2.2,.9-4,2Zm4.6,9.8c.4,4.4,.1,5.3-2.6,8.2-2.8,3.2-3,3.3-4,1.4-2.3-4.4-1.8-9.5,1.4-13.4,3.3-3.8,4.5-2.9,5.2,3.8Zm-3.9,18.1c1.1,.7,.4,1.9-3.1,5.7-2.5,2.7-5,5.8-5.6,6.9-1,1.9-1.1,1.8-1.7-.8-2.1-8.2,4.4-15.6,10.4-11.8Zm5.1,8.2c0,3.8-4.8,8.9-8.4,8.9-2.3,0-2.5-.2-1.5-2.6,1.1-3.1,8-10.3,9.2-9.7,.4,.2,.7,1.8,.7,3.4Zm-1,24.7c0,8.2-2.2,10.3-5.9,5.7-2.9-3.8-3.5-7.7-1.6-12.1l1.6-3.9,3,3.3c2.1,2.4,2.9,4.2,2.9,7Z"/><path class="cls-1" d="M216.9,154.15c-.7,1.3-1.4,5.5-1.7,9.4-.4,6.8-.3,7.2,2.9,10.8,2.6,3.1,3,3.9,1.8,4.7-.8,.5-1.7,.9-2.1,.9-.3,0-1.6,2-2.8,4.5-2.8,5.9-2.1,10.1,2.4,14.6l3.4,3.3-2.8,3.3c-3.9,4.4-4.6,8.8-2.6,15.8,1.9,6.4,3.2,7.3,7.4,5.1,6.9-3.6,9.5-10.7,6.9-18.8-1.1-3.6-1.2-4.8-.3-4.8,.7,0,2.5-1.3,4.1-3,5.7-5.9,4.3-18-2.5-21.5l-2.9-1.5,1.5-4.3c2.7-7.6-.5-15.5-7.7-19.2q-3.6-1.9-5,.7Zm8.8,8.2c1.6,3.4,1.3,8.5-.7,11.6-.7,1.2-1.2,1.2-2.9-.4-3.2-2.9-4.4-7.8-3.1-12.5,1-3.7,1.3-4,3.1-3.1,1.1,.6,2.7,2.6,3.6,4.4Zm4.8,21.1c2.4,2.3,3,4.5,2.5,9-.2,2.2-2,4.7-2,2.7,0-.6-2-3.4-4.5-6.2-4.8-5.4-5.3-6.5-3.2-7.3,2.7-1.1,4.9-.6,7.2,1.8Zm-3,13.2c.5,1.9,.3,2.3-1.8,2.3-5.1,0-9.7-6.3-8.1-11.2,.6-1.9,1-1.7,4.9,2.3,2.4,2.4,4.6,5.4,5,6.6Zm-1.6,11.4c1.8,5.2,1.3,8.6-1.7,12-3.5,3.9-4.9,3.3-5.7-2.5-.7-4.4,.2-7.3,3.3-10.9,2.1-2.4,2.8-2.2,4.1,1.4Z"/><path class="cls-1" d="M122.2,166.95c-9.7,1.4-18.8,4.8-22.7,8.5l-3.5,3.2v18.5c0,10.2,.5,20.9,1,23.8,1.5,8.1,5.3,15.4,11,21,17.7,17.8,47.9,13.9,60.7-7.8l2.5-4.2h6.3c10.4,0,16.5-1.7,20.7-5.9,6.4-6.4,7.3-15.6,2.2-23.3-3.5-5.4-7.5-7.2-17.4-7.8l-8.5-.5-.1-6.3c-.2-7.4-1.9-10.5-8-13.9-8.3-4.7-30-7.3-44.2-5.3Zm30.4,4.8c1.6,1,1.1,1.1-2.6,1.2-5.2,.1-10.9,2.4-16.4,6.9-6.9,5.5-13.3,6.1-26.8,2.4-3.2-.9-5.8-1.9-5.8-2.3,0-2.6,8.2-6.5,18-8.6,7.5-1.6,30.7-1.3,33.6,.4Zm12,7.2c5.1,2.2,5.9,3.4,3.8,5.4-9,9.1-47.1,11-61.2,3.1l-2.7-1.5,3,.7c1.7,.5,7.3,.8,12.6,.8,9,0,9.8-.2,13.9-3,7.7-5.4,10.1-6.8,13.3-7.6,4.3-1,12.3-.1,17.3,2.1Zm-59.8,11.9c6.6,3.3,17.3,5.1,30.4,5.1,15.3,0,24.5-1.9,34.1-6.8,.4-.2,.7,1.4,.7,3.6,0,3.8-.2,4.1-4.2,5.6-8.5,3-12.5,3.7-24.8,4.3-12.9,.5-24.3-.8-35.7-4.2-5.2-1.6-5.3-1.6-5.3-5.5,0-2.2,.2-4,.5-4s2.2,.8,4.3,1.9Zm83.2,6.2c5.2,1.2,8.7,4,10.6,8.6,1.9,4.5,1.7,7.9-.7,12.3-3.1,5.5-7,7.3-16.5,7.8l-8.1,.4,.4-13.8c.3-7.7,.6-14.5,.8-15.2,.5-1.5,7.2-1.6,13.5-.1Zm-76,7c17.3,3.9,37.4,3.5,52.2-1.1l5.8-1.8v9.9c0,11-1.9,17.7-7,24.8-6.4,8.8-20.7,15-31.5,13.6-11.9-1.4-23-9.8-28.1-21-2.3-5-2.8-7.7-3.2-16.9-.4-10.4-.4-10.9,1.4-10.2,1.1,.4,5.7,1.6,10.4,2.7Z"/><path class="cls-1" d="M61,237.05c0,2.2,7.1,11.6,13.7,18.3,7.8,7.9,12,10.9,21.8,15.9,15.2,7.7,27.8,10.3,45.5,9.3,16.9-.8,30.3-5.4,45-15.1,9.9-6.6,25-23.4,25-27.9,0-3.3-3.1-1.4-6.9,4.2-7.9,11.7-23.3,23.8-37.7,29.6-15.3,6.2-38.8,7.4-53.9,2.6-17.5-5.5-34.4-17.4-44-30.9-4.5-6.2-8.5-9.1-8.5-6Z"/><path class="cls-1" d="M243.6,61.85c-10.3,10.3-11.9,14.9-2.1,6,4.2-3.9,5.9-4.9,6.8-4,.6,.6,1.8,1.1,2.6,1.1,1.1,0,1-.4-.4-2-1.8-2-1.8-2.1,1.3-5.3,3-3.1,4.1-5.7,2.4-5.7-.4,0-5.2,4.4-10.6,9.9Z"/><path class="cls-1" d="M17.4,59.35c-2.4,2.4-4.4,4.8-4.4,5.3s3.9,4.1,8.6,7.8l8.7,6.9,3.3-4c6-7,5.2-12.5-2.3-17.7-5.7-3.9-8.7-3.6-13.9,1.7Zm12.2,.7c5.9,3.6,6.9,7.5,3.1,12.6l-2.3,3.2-7-5.6c-3.8-3-6.8-6-6.6-6.7,.7-2.4,4.7-5.6,7-5.6,1.4,0,4,.9,5.8,2.1Z"/><path class="cls-1" d="M261.2,67.65c.4,2.3-10.1,8.6-11.9,7.1-3-2.4-2.3,.5,1.3,6.2,3.9,5.9,6.1,7.7,5.2,4.2-.4-1.4,.8-2.7,5-5.2,3.6-2.2,5.7-2.9,6-2.2,.4,1.4,2.2,1.6,2.2,.3,0-.5-1.4-3.4-3.2-6.5-3.2-5.5-5.2-7.2-4.6-3.9Zm3.1,5.8c.7,1.6-9.6,8-11.3,7-2-1.3-.9-3.1,3.8-5.7,5.5-3.1,6.8-3.3,7.5-1.3Z"/><path class="cls-1" d="M5.8,77.15c-2.2,1.7-5.8,7.9-5.8,9.9,0,1.5,15.8,10.9,18.4,10.9,1.5,0,6.6-9,6.6-11.7,0-3.9-5.1-6.6-9.2-4.8-1.3,.5-1.8,.3-1.8-.8,0-1.6-3.6-4.7-5.5-4.7-.6,0-1.8,.6-2.7,1.2Zm4.6,2.4c2,.8,2,3.7,.1,7.4q-1.8,3.5-5.5,1.3c-2.5-1.4-2.7-2-1.8-3.7,1.4-2.7,3.9-5.6,4.9-5.6,.4,0,1.4,.3,2.3,.6Zm10.9,5.5c1.1,1.8,.4,5.5-1.6,8.3-1.3,1.8-1.5,1.8-4.8,.1-4.4-2.3-4.2-2-2.9-4.7,3.1-5.8,7-7.4,9.3-3.7Z"/><path class="cls-1" d="M268.2,82.15c-2.5,1.5-3.6,1.8-4.5,.9-1.7-1.7-2.9-1.3-2.2,.9,.5,1.6-.4,2.5-4.9,5.1-5.2,2.9-7.1,4.9-4.6,4.9,1.7,0,22-12.1,22-13.1,0-1.4-2.2-.9-5.8,1.3Z"/><path class="cls-1" d="M263.2,91.65c-7,4.1-10.9,7-10.4,7.5,1,1,24.2-11.9,24.2-13.4,0-1.7-2.9-.4-13.8,5.9Z"/><path class="cls-1" d="M78,358.35v5.6h-4.7c-4.4,0-4.9-.3-6.3-3.3-1.1-2.3-2.7-3.6-5.6-4.6-3.7-1.3-4.4-1.2-8,.5-4.8,2.3-6.8,7.2-5.3,12.7,1.4,5.1,4.3,7.2,9.9,7.2,5.2,0,8.5-2.1,10.1-6.3,.7-1.8,1.6-2.2,5.4-2.2h4.5v8.6c0,7.6,.2,8.5,1.8,8.2,1.5-.3,1.7-1.9,1.7-15.8s-.2-15.5-1.7-15.8-1.8,.5-1.8,5.2Zm-15.5,2c1.4,1,2,2.6,2,5.4,0,5.5-1.9,7.4-6.9,7-3.4-.2-4.3-.8-5.4-3.1-3.4-7.2,4.1-13.9,10.3-9.3Z"/><path class="cls-1" d="M127.6,353.65c-.3,.4-.6,5.1-.6,10.5v9.8h-3.5c-2.4,0-3.5,.5-3.5,1.5s1,1.5,3.3,1.5c1.8,0,3.8,.5,4.4,1.1,2.5,2.5,3.3-.4,3.3-12.1,0-9.2-.3-11.9-1.4-12.3-.8-.3-1.7-.3-2,0Z"/><path class="cls-1" d="M135.7,353.55c-.4,.4-.7,6.3-.7,13.1,0,11.7,.1,12.3,2,12.3,2,0,2-.5,1.8-12.7-.3-11.7-1-14.8-3.1-12.7Z"/><path class="cls-1" d="M177,357.85v5.1h-5c-4.3,0-5-.3-5-1.9,0-4.7-.8-5.1-10.1-5.1-7.1,0-8.9,.3-8.9,1.5,0,1.1,1.7,1.5,7.3,1.7,6.4,.3,7.2,.5,7.2,2.3s-.8,2-7.7,2.3c-6,.2-7.8,.6-7.8,1.7,0,1.2,1.6,1.5,7.6,1.5,9.2,0,8.9,1.2-1.1,5.5-6.4,2.7-7.8,4.1-5.1,5.1,2,.8,14.2-5.3,16.5-8.2,1.6-2,2.8-2.4,6.9-2.4h5.1l.3,5.2c.2,3.9,.7,5.3,1.8,5.3,1.2,0,1.5-2,1.5-12,0-10.6-.2-12-1.7-12.3s-1.8,.4-1.8,4.7Z"/><path class="cls-1" d="M106.3,355.45c-3.1,2.2-3.1,6.9-.1,8.9,1.2,.9,4.3,1.6,6.8,1.6,5.7,0,9-2.2,9-5.9,0-3.9-2.2-5.4-8.3-5.8-3.7-.3-5.8,0-7.4,1.2Zm11.6,3.3c1.4,2.6-.5,4.2-5,4.2s-6.8-2.2-4.9-4.5c1.8-2.2,8.7-2,9.9,.3Z"/><path class="cls-1" d="M194.7,356.65c-.4,.3-.7,4.8-.7,10v9.3h14.6c11.2,0,14.5-.3,14.2-1.3-.3-.8-4-1.3-12.6-1.5l-12.2-.3v-6.3c0-4.9,.4-6.5,1.6-7,.9-.3,6.3-.6,12-.6,8.6,0,10.4-.3,10.4-1.5,0-1.3-2.1-1.5-13.3-1.5-7.4,0-13.7,.3-14,.7Z"/><path class="cls-1" d="M110.8,368.65c-7.8,.3-9.8,.7-9.8,1.8s1.3,1.5,5,1.5c4.8,0,5,.1,5,2.8,0,1.6,.3,3.2,.7,3.5,1.1,1.2,3.3-1.4,3.3-3.9,0-2,.5-2.4,2.9-2.4,1.6,0,3.6-.3,4.5-.6,2.2-.8,2-3.5-.1-3.2-1,.1-6.2,.4-11.5,.5Z"/><path class="cls-1" d="M154.1,381.35c-.7,.9-1.1,4-.9,7.8l.3,6.3,12.9,.3c9.7,.2,13.1-.1,13.8-1,1.2-2,.9-12.3-.4-13.6-1.8-1.8-24.2-1.6-25.7,.2Zm22.4,7.1v4h-19l-.3-4.3-.3-4.3,9.8,.3,9.8,.3v4Z"/><path class="cls-1" d="M109.7,381.65c-1.9,1.8,.3,2.3,12.1,2.5,10.5,.3,12.7,.6,12.7,1.8s-2.3,1.6-12.5,2l-12.5,.5-.3,3.1c-.2,1.8,.3,3.6,1.1,4.3,2.1,1.6,28.9,1.1,29.4-.6,.3-.9-2.9-1.3-12.9-1.5-11-.3-13.3-.6-13.3-1.8s2.3-1.6,12.5-2l12.5-.5,.3-2.8c.6-5.2-.8-5.7-15.3-5.7-7.2,0-13.5,.3-13.8,.7Z"/><path class="cls-1" d="M54.2,388.65l.3,6.8,13.4,.3c8.6,.2,13.8-.1,14.5-.8,2.1-2.1-1.8-3-13.1-3h-11.3v-5c0-4.4-.3-5-2-5-1.9,0-2.1,.5-1.8,6.7Z"/><path class="cls-1" d="M189,387.95c0,2,.4,2,19.3,1.8,16.3-.3,19.2-.5,19.2-1.8s-2.9-1.5-19.2-1.8c-18.9-.2-19.3-.2-19.3,1.8Z"/></svg>